<svg width="64" height="64" viewBox="0 0 64 64" fill="none" xmlns="http://www.w3.org/2000/svg">
<rect x="0.666667" y="0.666667" width="62.6667" height="62.6667" rx="31.3333" fill="url(#paint0_linear_2030_5636)"/>
<rect x="0.666667" y="0.666667" width="62.6667" height="62.6667" rx="31.3333" stroke="#EEEEEE" stroke-width="1.33333"/>
<path d="M45.3332 32.0013C45.3332 24.6375 39.3636 18.668 31.9998 18.668C24.636 18.668 18.6665 24.6375 18.6665 32.0013C18.6665 39.365 24.636 45.3346 31.9998 45.3346C39.3636 45.3346 45.3332 39.365 45.3332 32.0013Z" stroke="#FF6D18" stroke-width="2"/>
<path d="M33.1519 26.2948L34.3251 28.6606C34.4851 28.99 34.9118 29.3058 35.2716 29.3663L37.3982 29.7226C38.758 29.9511 39.0779 30.9458 38.098 31.927L36.4448 33.5939C36.165 33.8762 36.0116 34.4206 36.0983 34.8103L36.5715 36.8736C36.9448 38.507 36.085 39.1387 34.6518 38.2851L32.6587 37.0955C32.2987 36.8804 31.7054 36.8804 31.3388 37.0955L29.3456 38.2851C27.9192 39.1387 27.0526 38.5002 27.4259 36.8736L27.8992 34.8103C27.9858 34.4206 27.8325 33.8762 27.5525 33.5939L25.8994 31.927C24.9262 30.9458 25.2395 29.9511 26.5993 29.7226L28.7258 29.3663C29.079 29.3058 29.5056 28.99 29.6656 28.6606L30.8388 26.2948C31.4788 25.0111 32.5187 25.0111 33.1519 26.2948Z" stroke="#FF6D18" stroke-width="2" stroke-linecap="round" stroke-linejoin="round"/>
<defs>
<linearGradient id="paint0_linear_2030_5636" x1="32" y1="0" x2="32" y2="64" gradientUnits="userSpaceOnUse">
<stop stop-color="white"/>
<stop offset="1" stop-color="#F1F1F1"/>
</linearGradient>
</defs>
</svg>
