<svg width="64" height="64" viewBox="0 0 64 64" fill="none" xmlns="http://www.w3.org/2000/svg">
<rect x="0.666667" y="0.666667" width="62.6667" height="62.6667" rx="31.3333" fill="url(#paint0_linear_2030_6437)"/>
<rect x="0.666667" y="0.666667" width="62.6667" height="62.6667" rx="31.3333" stroke="#EEEEEE" stroke-width="1.33333"/>
<path d="M32.0001 45.332C26.6575 45.332 23.9862 45.332 22.3265 43.5747C20.6667 41.8174 20.6667 38.9888 20.6667 33.332C20.6667 27.6752 20.6667 24.8468 22.3265 23.0894C23.9862 21.332 26.6575 21.332 32.0001 21.332C37.3426 21.332 40.0139 21.332 41.6737 23.0894C43.3334 24.8468 43.3334 27.6752 43.3334 33.332C43.3334 38.9888 43.3334 41.8174 41.6737 43.5747C40.0139 45.332 37.3426 45.332 32.0001 45.332Z" stroke="#FF6D18" stroke-width="2" stroke-linecap="round" stroke-linejoin="round"/>
<path d="M26.6667 21.3346V18.668" stroke="#FF6D18" stroke-width="2" stroke-linecap="round"/>
<path d="M37.3333 21.3346V18.668" stroke="#FF6D18" stroke-width="2" stroke-linecap="round"/>
<path d="M34.6906 28.6549C34.6906 30.1276 33.4968 31.3215 32.0241 31.3215C30.5513 31.3215 29.3574 30.1276 29.3574 28.6549C29.3574 27.1821 30.5513 25.9883 32.0241 25.9883C33.4968 25.9883 34.6906 27.1821 34.6906 28.6549Z" stroke="#FF6D18" stroke-width="2" stroke-linecap="round" stroke-linejoin="round"/>
<path d="M26.7507 38.2857C28.1619 36.1133 30.4027 35.2992 32.0242 35.3008C33.6455 35.3025 35.8209 36.1133 37.2319 38.2857C37.3231 38.4263 37.3483 38.5992 37.2659 38.7452C36.9359 39.3304 35.9113 40.4916 35.1713 40.5704C34.3209 40.6608 32.0965 40.6735 32.0259 40.6739C31.9553 40.6735 29.6622 40.6608 28.8114 40.5704C28.0713 40.4916 27.0467 39.3304 26.7167 38.7452C26.6343 38.5992 26.6595 38.4263 26.7507 38.2857Z" stroke="#FF6D18" stroke-width="2" stroke-linecap="round" stroke-linejoin="round"/>
<defs>
<linearGradient id="paint0_linear_2030_6437" x1="32" y1="0" x2="32" y2="64" gradientUnits="userSpaceOnUse">
<stop stop-color="white"/>
<stop offset="1" stop-color="#F1F1F1"/>
</linearGradient>
</defs>
</svg>
