<svg width="64" height="64" viewBox="0 0 64 64" fill="none" xmlns="http://www.w3.org/2000/svg">
<rect x="0.666667" y="0.666667" width="62.6667" height="62.6667" rx="31.3333" fill="url(#paint0_linear_2030_6446)"/>
<rect x="0.666667" y="0.666667" width="62.6667" height="62.6667" rx="31.3333" stroke="#EEEEEE" stroke-width="1.33333"/>
<path d="M18.6665 29.9987C18.6665 28.971 18.6845 27.9677 18.7186 26.9991C18.8303 23.8345 18.8861 22.2522 20.1733 20.9553C21.4604 19.6584 23.0874 19.5888 26.3414 19.4496C28.1267 19.3732 30.0277 19.332 31.9998 19.332C33.972 19.332 35.8729 19.3732 37.6582 19.4496C40.9122 19.5888 42.5393 19.6584 43.8264 20.9553C45.1136 22.2522 45.1694 23.8345 45.281 26.9991C45.3152 27.9677 45.3332 28.971 45.3332 29.9987C45.3332 31.0264 45.3152 32.0296 45.281 32.9983C45.1694 36.163 45.1136 37.7452 43.8264 39.0422C42.5393 40.339 40.9122 40.4086 37.6581 40.5478C36.6796 40.5896 35.6662 40.621 34.6256 40.6407C33.6374 40.6594 33.1433 40.6688 32.7092 40.8342C32.275 40.9995 31.9098 41.3127 31.1792 41.9391L28.2732 44.431C28.0968 44.5822 27.8721 44.6654 27.6397 44.6654C27.1022 44.6654 26.6665 44.2296 26.6665 43.6922V40.5612C26.5577 40.5568 26.4494 40.5524 26.3414 40.5478C23.0874 40.4086 21.4604 40.339 20.1733 39.042C18.8861 37.7452 18.8303 36.163 18.7186 32.9983C18.6845 32.0296 18.6665 31.0264 18.6665 29.9987Z" stroke="#FF6D18" stroke-width="2" stroke-linecap="round" stroke-linejoin="round"/>
<path d="M27.3335 34.6658C27.3335 32.0885 29.4228 29.9992 32.0002 29.9992C34.5775 29.9992 36.6668 32.0885 36.6668 34.6658M34.6668 27.3346C34.6668 28.8074 33.473 30.0013 32.0002 30.0013C30.5274 30.0013 29.3335 28.8074 29.3335 27.3346C29.3335 25.8619 30.5274 24.668 32.0002 24.668C33.473 24.668 34.6668 25.8619 34.6668 27.3346Z" stroke="#FF6D18" stroke-width="2" stroke-linecap="round" stroke-linejoin="round"/>
<defs>
<linearGradient id="paint0_linear_2030_6446" x1="32" y1="0" x2="32" y2="64" gradientUnits="userSpaceOnUse">
<stop stop-color="white"/>
<stop offset="1" stop-color="#F1F1F1"/>
</linearGradient>
</defs>
</svg>
